<svg xmlns="http://www.w3.org/2000/svg" xmlns:xlink="http://www.w3.org/1999/xlink" viewBox="0 0 500 500"><defs><clipPath id="freepik--clip-path--inject-2"><path d="M180.57,259.19s-16.11-3.05-25.86,15.38c-8.22,15.51-42.18,97.13-52.7,122.51h42c8.87-40.35,26-113.81,33.44-116.55,10.29-3.8,25.94.27,25.94.27Z" style="fill:#1E40AF;stroke:#263238;stroke-linecap:round;stroke-linejoin:round;stroke-width:1.14832px"></path></clipPath></defs><g id="freepik--background-simple--inject-2"><path d="M51.18,296.87s6.9,60.2,58.06,85.92,101.27.7,147.28-5.33c24.09-3.15,46.44,8.69,70.06,11.17,75.54,7.93,134.82-81.08,124.18-146.56-9.2-56.69-45.43-96.7-111.43-125.24S227.93,65.57,151.26,92.41,45.71,218.93,51.18,296.87Z" style="fill:#1E40AF"></path><path d="M51.18,296.87s6.9,60.2,58.06,85.92,101.27.7,147.28-5.33c24.09-3.15,46.44,8.69,70.06,11.17,75.54,7.93,134.82-81.08,124.18-146.56-9.2-56.69-45.43-96.7-111.43-125.24S227.93,65.57,151.26,92.41,45.71,218.93,51.18,296.87Z" style="fill:#fff;opacity:0.8"></path></g><g id="freepik--Device--inject-2"><path d="M368,363.31l16.19,26.07A5,5,0,0,1,380,397H346.9a5,5,0,0,0,4.25-7.6l-15.66-25.51Z" style="fill:#fff;stroke:#263238;stroke-linecap:round;stroke-linejoin:round;stroke-width:1.14832px"></path><polygon points="368.02 363.31 335.49 363.89 341.51 373.7 374.47 373.7 368.02 363.31" style="fill:#263238;stroke:#263238;stroke-linecap:round;stroke-linejoin:round;stroke-width:1.14832px"></polygon><rect x="278.55" y="252.34" width="138.27" height="116.78" rx="2.91" transform="translate(695.37 621.46) rotate(180)" style="fill:#fff;stroke:#263238;stroke-linecap:round;stroke-linejoin:round;stroke-width:1.14832px"></rect><rect x="273.32" y="252.34" width="138.27" height="116.78" rx="2.91" transform="translate(684.91 621.46) rotate(180)" style="fill:#fff;stroke:#263238;stroke-linecap:round;stroke-linejoin:round;stroke-width:1.14832px"></rect><path d="M278,252.34H407a4.65,4.65,0,0,1,4.64,4.65V348.2H273.32V257A4.65,4.65,0,0,1,278,252.34Z" style="fill:#263238;stroke:#263238;stroke-linecap:round;stroke-linejoin:round;stroke-width:1.14832px"></path><rect x="279.13" y="256.99" width="126.65" height="84.82" transform="translate(684.91 598.8) rotate(180)" style="fill:#fff;stroke:#263238;stroke-linecap:round;stroke-linejoin:round;stroke-width:1.14832px"></rect><rect x="237.74" y="391.16" width="4.02" height="1.34" style="fill:#fff;stroke:#263238;stroke-linecap:round;stroke-linejoin:round;stroke-width:1.14832px"></rect><rect x="243.1" y="391.16" width="4.02" height="1.34" style="fill:#fff;stroke:#263238;stroke-linecap:round;stroke-linejoin:round;stroke-width:1.14832px"></rect><rect x="248.47" y="391.16" width="4.02" height="1.34" style="fill:#fff;stroke:#263238;stroke-linecap:round;stroke-linejoin:round;stroke-width:1.14832px"></rect><rect x="253.83" y="391.16" width="4.02" height="1.34" style="fill:#fff;stroke:#263238;stroke-linecap:round;stroke-linejoin:round;stroke-width:1.14832px"></rect><rect x="259.19" y="391.16" width="4.02" height="1.34" style="fill:#fff;stroke:#263238;stroke-linecap:round;stroke-linejoin:round;stroke-width:1.14832px"></rect><rect x="264.56" y="391.16" width="4.02" height="1.34" style="fill:#fff;stroke:#263238;stroke-linecap:round;stroke-linejoin:round;stroke-width:1.14832px"></rect><rect x="269.92" y="391.16" width="4.02" height="1.34" style="fill:#fff;stroke:#263238;stroke-linecap:round;stroke-linejoin:round;stroke-width:1.14832px"></rect><rect x="275.28" y="391.16" width="4.02" height="1.34" style="fill:#fff;stroke:#263238;stroke-linecap:round;stroke-linejoin:round;stroke-width:1.14832px"></rect><rect x="280.65" y="391.16" width="4.02" height="1.34" style="fill:#fff;stroke:#263238;stroke-linecap:round;stroke-linejoin:round;stroke-width:1.14832px"></rect><rect x="286.01" y="391.16" width="4.02" height="1.34" style="fill:#fff;stroke:#263238;stroke-linecap:round;stroke-linejoin:round;stroke-width:1.14832px"></rect><rect x="291.37" y="391.16" width="4.02" height="1.34" style="fill:#fff;stroke:#263238;stroke-linecap:round;stroke-linejoin:round;stroke-width:1.14832px"></rect><rect x="296.74" y="391.16" width="4.02" height="1.34" style="fill:#fff;stroke:#263238;stroke-linecap:round;stroke-linejoin:round;stroke-width:1.14832px"></rect><rect x="302.1" y="391.16" width="4.02" height="1.34" style="fill:#fff;stroke:#263238;stroke-linecap:round;stroke-linejoin:round;stroke-width:1.14832px"></rect><rect x="307.46" y="391.16" width="4.02" height="1.34" style="fill:#fff;stroke:#263238;stroke-linecap:round;stroke-linejoin:round;stroke-width:1.14832px"></rect><rect x="312.83" y="391.16" width="4.02" height="1.34" style="fill:#fff;stroke:#263238;stroke-linecap:round;stroke-linejoin:round;stroke-width:1.14832px"></rect><rect x="318.19" y="391.16" width="4.02" height="1.34" style="fill:#fff;stroke:#263238;stroke-linecap:round;stroke-linejoin:round;stroke-width:1.14832px"></rect><rect x="323.55" y="391.16" width="4.02" height="1.34" style="fill:#fff;stroke:#263238;stroke-linecap:round;stroke-linejoin:round;stroke-width:1.14832px"></rect><rect x="328.92" y="391.16" width="4.02" height="1.34" style="fill:#fff;stroke:#263238;stroke-linecap:round;stroke-linejoin:round;stroke-width:1.14832px"></rect><rect x="334.28" y="391.16" width="4.02" height="1.34" style="fill:#fff;stroke:#263238;stroke-linecap:round;stroke-linejoin:round;stroke-width:1.14832px"></rect><rect x="339.64" y="391.16" width="4.02" height="1.34" style="fill:#fff;stroke:#263238;stroke-linecap:round;stroke-linejoin:round;stroke-width:1.14832px"></rect><rect x="345.01" y="391.16" width="4.02" height="1.34" style="fill:#fff;stroke:#263238;stroke-linecap:round;stroke-linejoin:round;stroke-width:1.14832px"></rect><rect x="235.66" y="392.7" width="116.29" height="4.34" style="fill:#fff;stroke:#263238;stroke-linecap:round;stroke-linejoin:round;stroke-width:1.14832px"></rect><rect x="323.59" y="392.7" width="28.37" height="4.34" style="fill:#263238;stroke:#263238;stroke-linecap:round;stroke-linejoin:round;stroke-width:1.14832px"></rect></g><g id="freepik--Character--inject-2"><path d="M253.37,203.86a30.66,30.66,0,0,1,2.8,13.32c0,8-3.85,15.76-2.8,18.92s1.41,14.26-.76,16.43c-1.24,1.24-6.5-.36-6.5-.36s-1.41,4.2-2.81,4.2-5.25-.7-6.65,1.75.7,5.26-.7,6.66a19,19,0,0,1-3.16,2.45s-3.71,3.39-6.17,3.39-14.55-8.53-14.55-8.53S202.84,268,199,270.82s-6,12.42-6,12.42-20.78-14.75-17.27-28.41,44.7-33.1,58-40.81S253.37,203.86,253.37,203.86Z" style="fill:#b2b2b2;stroke:#263238;stroke-linecap:round;stroke-linejoin:round;stroke-width:1.14832px"></path><path d="M250.22,232.24s1.18-5.43-3.72-5.43" style="fill:none;stroke:#263238;stroke-linecap:round;stroke-linejoin:round;stroke-width:2.29665px"></path><path d="M245.56,221.21c-.49-.93,4.84-4,8.63-.7" style="fill:none;stroke:#263238;stroke-linecap:round;stroke-linejoin:round;stroke-width:2.29665px"></path><path d="M249.62,232.08c-.61,1.27-1.67,2-2.37,1.7s-.76-1.64-.15-2.91,1.68-2,2.37-1.71S250.24,230.8,249.62,232.08Z" style="fill:#263238"></path><path d="M213.61,246.73a2.78,2.78,0,1,1-2.78-2.78A2.78,2.78,0,0,1,213.61,246.73Z" style="fill:#fff;stroke:#263238;stroke-linecap:round;stroke-linejoin:round;stroke-width:1.14832px"></path><line x1="210.83" y1="249.51" x2="210.83" y2="259.32" style="fill:#fff;stroke:#263238;stroke-linecap:round;stroke-linejoin:round;stroke-width:1.14832px"></line><path d="M210.67,256.05s-4.25,12.1-3.6,13.08,7.69.49,8.18,0S210.67,256.05,210.67,256.05Z" style="fill:#fff;stroke:#263238;stroke-linecap:round;stroke-linejoin:round;stroke-width:1.14832px"></path><path d="M229.42,301.44s8.73,5.64,6.48,5.92a11.72,11.72,0,0,1-7.32-1.69,12.67,12.67,0,0,0-6.77-1.69h-5.63s2.25-4,5.07-4.51S229.42,301.44,229.42,301.44Z" style="fill:#b2b2b2;stroke:#263238;stroke-linecap:round;stroke-miterlimit:10;stroke-width:1.14832px"></path><path d="M228.86,296.93s11.83,5.64,11.55,7.05-.85,1.69-3.95,1.41-9.29-3.95-9.29-3.95l-7-1.13S224.35,294.12,228.86,296.93Z" style="fill:#b2b2b2;stroke:#263238;stroke-linecap:round;stroke-miterlimit:10;stroke-width:1.14832px"></path><path d="M199.27,300.31s11.27-5.91,13.81-7.32,7.61-.85,11.27-.85,15.5.28,16.06,2.54-3.38,2.82-7.33,2.82-7.32-.57-10.42,2.81a27.69,27.69,0,0,0-4.79,7.89,55,55,0,0,0,9,1.13c3.66,0,9.29,1.41,8.73,3.1s-2,3.38-6.48,2.82-10.71.28-15.5.56-12.11-1.13-12.11-1.13Z" style="fill:#b2b2b2;stroke:#263238;stroke-linecap:round;stroke-miterlimit:10;stroke-width:1.14832px"></path><path d="M203.41,280.8s3,0,.91,6.66S201,306.81,201,306.81l-9.68-32.06Z" style="fill:#545454;stroke:#263238;stroke-linecap:round;stroke-miterlimit:10;stroke-width:1.14832px"></path><path d="M194.07,397.08a28.77,28.77,0,0,0,1.82-2.94c6.14-11.56,8.31-47.68,7.23-71.53s-1.86-37.79-6.55-46.46c0,0-11.1-12.51-22.3-17.93s-31.85,10.2-42,25.74S100,377.89,93.47,392.7a11.78,11.78,0,0,0-1,4.38Z" style="fill:#1E40AF;stroke:#263238;stroke-linecap:round;stroke-linejoin:round;stroke-width:1.14832px"></path><path d="M287.26,334.29a40.84,40.84,0,0,0,5.67-.15c.87,0,10.39-1.4,7.83-4-.79-.79-3.12-.7-4.14-.83A67.44,67.44,0,0,0,281,329l6.54-2.73a31.78,31.78,0,0,1,4.2-.26c.8,0,1.7,0,2.63,0,1.59,0,5.53-.56,6.32-2.14,1.27-2.54-9.59-3.69-11.16-3.69s-9.66,1-10.09,1l-1.61.32h-.29s7.58-2.17,10.83-2.17,7.59,1.09,8.67-2.17-7.22-2.16-14.45-1.8-12.28,4.69-16.61,8.31-12.65,19.14-21.68,27.09S216.48,366,216.48,366s-10.86-61.46-15.55-79.16-17-22.29-17-22.29l-16.75,54.71c2.12,11.44,15,71,15.67,72.39a25.34,25.34,0,0,0,3.18,5.46h42a59.8,59.8,0,0,0,5.35-5.1c5.78-6.15,25.29-40.1,25.29-40.1s2.17-.36,7.23-3.26c3.28-1.87,8.41-6.82,12.39-5.93a40.48,40.48,0,0,0,9.95.61c2.72-.08,5.94-.2,8-2.26,1.69-1.69-1.85-1.38-2.8-1.46-3-.25-5.75-1.4-8.63-2.15-.91-.24-4.31-1.53-5.19-1.09a27.46,27.46,0,0,0,2.53-1.44C283.32,334.17,285.09,334.29,287.26,334.29Z" style="fill:#1E40AF;stroke:#263238;stroke-linecap:round;stroke-linejoin:round;stroke-width:1.14832px"></path><path d="M287.26,334.29a40.84,40.84,0,0,0,5.67-.15c.87,0,10.39-1.4,7.83-4-.79-.79-3.12-.7-4.14-.83A67.44,67.44,0,0,0,281,329l6.54-2.73a31.78,31.78,0,0,1,4.2-.26c.8,0,1.7,0,2.63,0,1.59,0,5.53-.56,6.32-2.14,1.27-2.54-9.59-3.69-11.16-3.69s-9.66,1-10.09,1l-1.61.32h-.29s7.58-2.17,10.83-2.17,7.59,1.09,8.67-2.17-7.22-2.16-14.45-1.8-12.28,4.69-16.61,8.31-12.65,19.14-21.68,27.09S216.48,366,216.48,366s-5.06-27.68-9.76-50.85a69.12,69.12,0,0,0-36.15,20.53c4.55,21.66,11.8,54.94,12.32,56a25.34,25.34,0,0,0,3.18,5.46h42a59.8,59.8,0,0,0,5.35-5.1c5.78-6.15,25.29-40.1,25.29-40.1s2.17-.36,7.23-3.26c3.28-1.87,8.41-6.82,12.39-5.93a40.48,40.48,0,0,0,9.95.61c2.72-.08,5.94-.2,8-2.26,1.69-1.69-1.85-1.38-2.8-1.46-3-.25-5.75-1.4-8.63-2.15-.91-.24-4.31-1.53-5.19-1.09a27.46,27.46,0,0,0,2.53-1.44C283.32,334.17,285.09,334.29,287.26,334.29Z" style="fill:#263238;stroke:#263238;stroke-linecap:round;stroke-linejoin:round;stroke-width:1.14832px"></path><path d="M287.26,334.29a40.84,40.84,0,0,0,5.67-.15c.87,0,10.39-1.4,7.83-4-.79-.79-3.12-.7-4.14-.83A67.44,67.44,0,0,0,281,329l6.54-2.73a31.78,31.78,0,0,1,4.2-.26c.8,0,1.7,0,2.63,0,1.59,0,5.53-.56,6.32-2.14,1.27-2.54-9.59-3.69-11.16-3.69s-9.66,1-10.09,1l-1.61.32h-.29s7.58-2.17,10.83-2.17,7.59,1.09,8.67-2.17-7.22-2.16-14.45-1.8-12.28,4.69-16.61,8.31-12.65,19.14-21.68,27.09S216.48,366,216.48,366s-4.16-22.76-8.44-44.28a60.7,60.7,0,0,0-36.17,20.14c4.51,21.28,10.55,48.85,11,49.79a25.34,25.34,0,0,0,3.18,5.46h42a59.8,59.8,0,0,0,5.35-5.1c5.78-6.15,25.29-40.1,25.29-40.1s2.17-.36,7.23-3.26c3.28-1.87,8.41-6.82,12.39-5.93a40.48,40.48,0,0,0,9.95.61c2.72-.08,5.94-.2,8-2.26,1.69-1.69-1.85-1.38-2.8-1.46-3-.25-5.75-1.4-8.63-2.15-.91-.24-4.31-1.53-5.19-1.09a27.46,27.46,0,0,0,2.53-1.44C283.32,334.17,285.09,334.29,287.26,334.29Z" style="fill:#b2b2b2;stroke:#263238;stroke-linecap:round;stroke-linejoin:round;stroke-width:1.14832px"></path><line x1="216.48" y1="365.97" x2="220.28" y2="384.57" style="fill:#fff;stroke:#263238;stroke-linecap:round;stroke-linejoin:round;stroke-width:1.14832px"></line><path d="M180.57,259.19s-16.11-3.05-25.86,15.38c-8.22,15.51-42.18,97.13-52.7,122.51h42c8.87-40.35,26-113.81,33.44-116.55,10.29-3.8,25.94.27,25.94.27Z" style="fill:#1E40AF"></path><g style="clip-path:url(#freepik--clip-path--inject-2)"><path d="M144,397.08c8.87-40.35,26-113.81,33.44-116.55,10.29-3.8,25.94.27,25.94.27l-22.84-21.61s-16.11-3.05-25.86,15.38c-8.22,15.51-42.18,97.13-52.7,122.51Z" style="fill:#fff;opacity:0.5"></path></g><path d="M180.57,259.19s-16.11-3.05-25.86,15.38c-8.22,15.51-42.18,97.13-52.7,122.51h42c8.87-40.35,26-113.81,33.44-116.55,10.29-3.8,25.94.27,25.94.27Z" style="fill:none;stroke:#263238;stroke-linecap:round;stroke-linejoin:round;stroke-width:1.14832px"></path><rect x="318.36" y="392.7" width="33.6" height="4.34" style="fill:#fff;stroke:#263238;stroke-linecap:round;stroke-linejoin:round;stroke-width:1.14832px"></rect><path d="M256.94,203.76s-4.33,15.17-25.28,25.29S202,245.3,196.25,250s-9.75,11.92-23.48,3.61-11.56-37.57-6.86-52.38,16.61-31.43,43.35-30.71,49.85,17.7,50.94,24.57S256.94,203.76,256.94,203.76Z" style="fill:#263238;stroke:#263238;stroke-linecap:round;stroke-linejoin:round;stroke-width:1.14832px"></path><path d="M188.81,196.91a5.59,5.59,0,1,1-5.57-5.08A5.34,5.34,0,0,1,188.81,196.91Z" style="fill:#fff"></path><path d="M183.43,211.65s3.35-10.23-4.39-13-8.19,3.65-29,12.74-35,12.47-38.89,23.4,4,16.7,4,16.7-15.69,7.38-18.68,18.79,6.31,23.39,28,28.39,37.31-4.65,42.2-12.82,6.28-19,6.28-19,5.5,5.51,12.22-8.89S183.43,211.65,183.43,211.65Z" style="fill:#263238;stroke:#263238;stroke-linecap:round;stroke-linejoin:round;stroke-width:1.14832px"></path><g style="opacity:0.25"><path d="M189.39,250.36c3.25-13.73-5.06-49.13-5.06-49.13" style="fill:none;stroke:#fff;stroke-linecap:round;stroke-linejoin:round;stroke-width:1.14832px"></path><path d="M154.4,294.56c-14.63,3.21-25-14.23-14.83-25.54a16.4,16.4,0,0,1,14.56-5.12c3,.49,6.12,2.1,7.27,4.94a8.74,8.74,0,0,1-.25,6.26c-2.33,6.15-17.89,14.21-17.89,2.5,0-5.33,7.94-10.53,9.69-6.78s.49,6.3-2.42,6.3" style="fill:none;stroke:#fff;stroke-linecap:round;stroke-linejoin:round;stroke-width:1.14832px"></path><path d="M157.31,238.35c-3.87,0-5.81,9.69,1,10.66s17.56-3.17,9.69-13.08c-3.92-5-20.83-7.27-25.68,1.93s1,20.84,17,23.27c10.85,1.64,25.42-1.59,26.17-15,.48-8.72.48-36.83.48-36.83" style="fill:none;stroke:#fff;stroke-linecap:round;stroke-linejoin:round;stroke-width:1.14832px"></path><path d="M135.5,230.59s-17,10.18-11.63,20.36,28.6,8.72,28.6,8.72" style="fill:none;stroke:#fff;stroke-linecap:round;stroke-linejoin:round;stroke-width:1.14832px"></path><path d="M127.75,255.31s-18.9,2.42-16,20.84" style="fill:none;stroke:#fff;stroke-linecap:round;stroke-linejoin:round;stroke-width:1.14832px"></path></g><rect x="88.23" y="152.82" width="225.84" height="244.22" style="fill:none"></rect><line x1="62.74" y1="397.12" x2="427.82" y2="397.12" style="fill:none;stroke:#263238;stroke-linecap:round;stroke-linejoin:round;stroke-width:1.14832px"></line></g></svg>