<?xml version="1.0" encoding="UTF-8" standalone="no"?>
<!DOCTYPE svg PUBLIC "-//W3C//DTD SVG 1.1//EN" "http://www.w3.org/Graphics/SVG/1.1/DTD/svg11.dtd">
<svg width="100%" height="100%" viewBox="0 0 1024 1024" version="1.1" xmlns="http://www.w3.org/2000/svg" xmlns:xlink="http://www.w3.org/1999/xlink" xml:space="preserve" xmlns:serif="http://www.serif.com/" style="fill-rule:evenodd;clip-rule:evenodd;stroke-linejoin:round;stroke-miterlimit:2;">
    <g transform="matrix(1,0,0,1,275.817453,105.089033)">
        <g transform="matrix(833.333333,0,0,833.333333,0,612.792969)">
            <path d="M0.123,-0.399L0.059,-0.413L0.06,-0.434L0.13,-0.44L0.131,-0.445C0.149,-0.535 0.182,-0.606 0.23,-0.656C0.279,-0.706 0.336,-0.731 0.402,-0.731C0.433,-0.731 0.462,-0.727 0.489,-0.718C0.478,-0.681 0.469,-0.64 0.461,-0.597L0.441,-0.593L0.41,-0.688C0.404,-0.69 0.396,-0.69 0.386,-0.69C0.347,-0.69 0.315,-0.674 0.289,-0.641C0.263,-0.608 0.241,-0.547 0.223,-0.458L0.219,-0.441L0.342,-0.441L0.333,-0.397L0.211,-0.397L0.136,-0.033C0.117,0.063 0.09,0.133 0.056,0.177C0.022,0.22 -0.024,0.241 -0.083,0.241C-0.105,0.241 -0.13,0.238 -0.157,0.231C-0.152,0.201 -0.145,0.172 -0.137,0.145L-0.134,0.143C-0.091,0.176 -0.06,0.192 -0.042,0.192C-0.004,0.192 0.024,0.144 0.041,0.049L0.123,-0.399Z" style="fill:#0751c4;fill-rule:nonzero;"/>
        </g>
        <g transform="matrix(833.333333,0,0,833.333333,250.651042,612.792969)">
            <path d="M0.046,0.002L0.123,-0.366C0.125,-0.38 0.126,-0.389 0.126,-0.393C0.126,-0.401 0.123,-0.408 0.115,-0.411C0.108,-0.415 0.089,-0.417 0.058,-0.417L0.059,-0.435C0.103,-0.45 0.137,-0.458 0.163,-0.458C0.179,-0.458 0.192,-0.454 0.201,-0.446C0.211,-0.438 0.215,-0.426 0.215,-0.412C0.215,-0.41 0.215,-0.405 0.214,-0.398C0.281,-0.438 0.339,-0.458 0.39,-0.458L0.392,-0.455C0.382,-0.407 0.371,-0.356 0.361,-0.301L0.341,-0.298C0.334,-0.33 0.326,-0.352 0.317,-0.364C0.309,-0.377 0.295,-0.383 0.276,-0.383C0.257,-0.383 0.235,-0.376 0.208,-0.362L0.134,-0.002L0.046,0.002Z" style="fill:#0751c4;fill-rule:nonzero;"/>
        </g>
    </g>
</svg>
